<?xml version="1.0"?>
<svg xmlns="http://www.w3.org/2000/svg" id="Layer_1" data-name="Layer 1" viewBox="0 0 512 512" width="512px" height="512px"><g><title class="active-path" style="fill:#377CFD" data-old_color="#367BFC">Service Location 2</title><path d="M282.141,181H298.7c-1.921-2-4.913-4.07-8.278-4.07S284.062,179,282.141,181Z" data-original="#000000" class="active-path" data-old_color="#367BFC" fill="#377CFD"/><path d="M290.419,162.93A25,25,0,0,1,314.051,181h5.228L308.4,161.067C303.252,151.842,298.89,148,293.852,148H218.858c-7.31,0-12.309,8.165-14.637,12.968-.064.13-.131.079-.2.206L192.729,181h74.058A25,25,0,0,1,290.419,162.93Z" data-original="#000000" class="active-path" data-old_color="#367BFC" fill="#377CFD"/><path d="M195.63,227.854a4.063,4.063,0,1,0-4.064-4.063A4.067,4.067,0,0,0,195.63,227.854Z" data-original="#000000" class="active-path" data-old_color="#367BFC" fill="#377CFD"/><rect x="188" y="260" width="7" height="5" data-original="#000000" class="active-path" data-old_color="#367BFC" fill="#377CFD"/><circle cx="316.371" cy="223.791" r="4.063" data-original="#000000" class="active-path" data-old_color="#367BFC" fill="#377CFD"/><path d="M369.306,101.667a161.894,161.894,0,0,0-226.612,0A166.936,166.936,0,0,0,93.341,209.2a155.363,155.363,0,0,0,9.709,64.919c7.677,20.7,20.247,40.288,37.358,58.218L256,453.452,371.592,332.334c17.111-17.93,29.681-37.518,37.358-58.218a155.363,155.363,0,0,0,9.709-64.919A166.936,166.936,0,0,0,369.306,101.667ZM256,333.617c-69.31,0-125.7-56.928-125.7-126.9S186.69,79.814,256,79.814s125.7,56.928,125.7,126.9S325.31,333.617,256,333.617Z" data-original="#000000" class="active-path" data-old_color="#367BFC" fill="#377CFD"/><path d="M180.234,195.2c-4.408.357-7.079,4.9-7.227,9.307l4.89,38.7a10.969,10.969,0,0,1,.056,1.118A1.684,1.684,0,0,0,179.391,246h153a1.654,1.654,0,0,0,1.437-1.647,8.706,8.706,0,0,1,.061-1.022l5.1-38.666c-.172-4.471-3.189-9.4-7.979-9.4-.027,0-.052-.265-.077-.265H180.741C180.57,195,180.4,195.213,180.234,195.2Zm136.137,10.527a18.063,18.063,0,1,1-18.063,18.063A18.084,18.084,0,0,1,316.371,205.728ZM230.665,221h50.67a7,7,0,0,1,0,14h-50.67a7,7,0,1,1,0-14ZM195.63,205.728a18.063,18.063,0,1,1-18.064,18.063A18.083,18.083,0,0,1,195.63,205.728Z" data-original="#000000" class="active-path" data-old_color="#367BFC" fill="#377CFD"/><path d="M256,93.814c-61.59,0-111.7,50.648-111.7,112.9s50.107,112.9,111.7,112.9,111.7-50.647,111.7-112.9S317.59,93.814,256,93.814Zm97,111.2a7.038,7.038,0,0,1-.061.917l-5.363,38.739A14.657,14.657,0,0,1,338,258.315v9.634A10.682,10.682,0,0,1,327.269,279H314.458A11.3,11.3,0,0,1,303,267.949V260H209v7.949A11.3,11.3,0,0,1,197.542,279H184.731A10.682,10.682,0,0,1,174,267.949v-9.532a14.873,14.873,0,0,1-9.795-13.769l-5.027-38.754a7.077,7.077,0,0,1-.117-.879c0-11.615,7.339-21.022,17.4-23.157l15.273-27.2C198.226,141.4,207.841,134,218.858,134h74.994c13.659,0,21.5,11.035,26.812,20.555l14.81,27.351C345.466,184.119,353,193.669,353,205.015Z" data-original="#000000" class="active-path" data-old_color="#367BFC" fill="#377CFD"/><rect x="317" y="260" width="7" height="5" data-original="#000000" class="active-path" data-old_color="#367BFC" fill="#377CFD"/></g> </svg>
